# xmcd CD database file
#
# Track frame offsets:
#	150
#	16022
#	28202
#	51880
#	68749
#	84431
#	101117
#	119125
#	134828
#	146188
#	168485
#	185736
#	209656
#	228540
#	246655
#	268142
#	292166
#	308745
#	323261
#
# Disc length: 4609 seconds
#
# Revision: 1
# Processed by: cddbd v1.5.2PL0 Copyright (c) Steve Scherf et al.
# Submitted via: CDex 1.70beta2
#
DISCID=3311ff13
DTITLE=Artisti Vari - A Tuneful Dream
DYEAR=2007
DGENRE=New Age
TTITLE0=Brano 1 - Southern China Tune - Ahli Mountain Girl
TTITLE1=Brano 2 - Southern China Tune - Ahli Mountain Girl
TTITLE2=Brano 3 - Southern China Tune - Ahli Mountain Girl
TTITLE3=Brano 4 - Southern China Tune - Ahli Mountain Girl
TTITLE4=Brano 5 - Southern China Tune - Ahli Mountain Girl
TTITLE5=Brano 6 - Southern China Tune - Ahli Mountain Girl
TTITLE6=Brano 7 - Southern China Tune - Ahli Mountain Girl
TTITLE7=Brano 8 - Southern China Tune - Ahli Mountain Girl
TTITLE8=Brano 9 - Southern China Tune - Ahli Mountain Girl
TTITLE9=Brano 10 - Southern China Tune - Ahli Mountain Girl
TTITLE10=Brano 11 - Southern China Tune - Ahli Mountain Girl
TTITLE11=Brano 12 - Southern China Tune - Ahli Mountain Girl
TTITLE12=Brano 13 - Southern China Tune - Ahli Mountain Girl
TTITLE13=Brano 14 - Southern China Tune - Ahli Mountain Girl
TTITLE14=Brano 15 - Southern China Tune - Ahli Mountain Girl
TTITLE15=Brano 16 - Southern China Tune - Ahli Mountain Girl
TTITLE16=Brano 17 - Southern China Tune - Ahli Mountain Girl
TTITLE17=Brano 18 - Southern China Tune - Ahli Mountain Girl
TTITLE18=Brano 19 - Southern China Tune - Ahli Mountain Girl
EXTD=YEAR: 2007
EXTT0=
EXTT1=
EXTT2=
EXTT3=
EXTT4=
EXTT5=
EXTT6=
EXTT7=
EXTT8=
EXTT9=
EXTT10=
EXTT11=
EXTT12=
EXTT13=
EXTT14=
EXTT15=
EXTT16=
EXTT17=
EXTT18=
PLAYORDER=
